<?xml version="1.0" encoding="utf-8"?>
<!-- Generator: Adobe Illustrator 23.0.0, SVG Export Plug-In . SVG Version: 6.00 Build 0)  -->
<svg version="1.1" id="Capa_1" xmlns="http://www.w3.org/2000/svg" xmlns:xlink="http://www.w3.org/1999/xlink" x="0px" y="0px"
	 viewBox="0 0 2000 2000" style="enable-background:new 0 0 2000 2000;" xml:space="preserve">
<style type="text/css">
	.st0{fill:#28265C;}
	.st1{fill:#2F81B9;}
	.st2{fill:#00BCB8;}
	.st3{fill:#FFDF6D;}
</style>
<g>
	<polygon class="st0" points="650.72,841.79 650.72,676 804.24,758.9 	"/>
	<polygon class="st1" points="957.75,1007.59 957.75,841.79 1111.26,924.69 	"/>
	<polygon class="st1" points="804.24,1090.48 804.24,924.69 957.75,1007.59 	"/>
	<polygon class="st2" points="650.72,1007.59 650.72,841.79 804.24,924.69 	"/>
	<polygon class="st2" points="957.75,841.79 957.75,1007.59 804.24,924.69 	"/>
	<polygon class="st1" points="804.24,758.9 804.24,924.69 650.72,841.79 	"/>
	<polygon class="st2" points="957.75,1007.59 957.75,1173.38 804.24,1090.48 	"/>
	<polygon class="st2" points="1195.06,1120.28 1195.06,954.49 1348.57,1037.38 	"/>
	<polygon class="st3" points="650.72,1324 650.72,1158.21 804.24,1241.1 	"/>
	<polygon class="st0" points="957.75,841.79 957.75,676 1111.26,758.9 	"/>
	<polygon class="st0" points="804.24,924.69 804.24,758.9 957.75,841.79 	"/>
</g>
</svg>
